<svg xmlns="http://www.w3.org/2000/svg" version="1.1" xmlns:xlink="http://www.w3.org/1999/xlink" xmlns:svgjs="http://svgjs.dev/svgjs" width="100%" height="100%" viewBox="0 0 1000 600"><rect width="1000" height="600" x="0" y="0" fill="white"/><g><rect width="333.3333333333333" height="333.3333333333333" rx="13.333333333333334" ry="13.333333333333334" y="263.4435574706396" fill="white" transform="matrix(0.5181962452363731,0,0,0.5181962452363731,0,77.11848127783135)" x="241.22129821777344"/><path d="M263.5649181588101 430.31507301090295Q263.5649181588101 408.8363380495984 273.25083269858095 391.65920259689295Q282.9367472383518 374.48206714418757 299.67494396569 364.79615260441665Q316.44240327471925 355.11023806464584 336.86768529514245 355.11023806464584L336.86768529514245 355.11023806464584Q360.8922648635771 355.11023806464584 378.80096485856126 366.69822041434145Q396.70966485354546 378.2862027640371 404.9324503087588 399.56009965350364L404.9324503087588 399.56009965350364L381.96132368120556 399.56009965350364Q375.84544410775504 386.27488756572126 364.374512084824 379.1348176330805Q352.87431748020185 371.9654851187486 336.86768529514245 371.9654851187486L336.86768529514245 371.9654851187486Q321.50482990728835 371.9654851187486 309.2730707603874 379.1348176330805Q297.0413116134864 386.27488756572126 290.10607975268374 399.443049326739Q283.14158531018984 412.6112110877568 283.14158531018984 430.31507301090295L283.14158531018984 430.31507301090295Q283.14158531018984 447.81409686221104 290.10607975268374 460.9822586232288Q297.0413116134864 474.15042038424656 309.2730707603874 481.3197528985785Q321.50482990728835 488.45982283121924 336.86768529514245 488.45982283121924L336.86768529514245 488.45982283121924Q352.87431748020185 488.45982283121924 364.374512084824 481.40754064365194Q375.84544410775504 474.35525845608464 381.96132368120556 461.07004636830226L381.96132368120556 461.07004636830226L404.9324503087588 461.07004636830226Q396.70966485354546 482.1391051859307 378.80096485856126 493.6392997905529Q360.8922648635771 505.11023181348395 336.86768529514245 505.11023181348395L336.86768529514245 505.11023181348395Q316.44240327471925 505.11023181348395 299.67494396569 495.54136760047766Q282.9367472383518 485.9432408057803 273.25083269858095 468.8831556798395Q263.5649181588101 451.8230705538987 263.5649181588101 430.31507301090295L263.5649181588101 430.31507301090295ZM531.9613174300437 503.8519408007645L520.16849700851 471.1948996334404L456.1127056865813 471.1948996334404L444.31988526504756 503.8519408007645L424.0994413164625 503.8519408007645L477.1817645042097 357.83165816192286L499.3042762627196 357.83165816192286L552.2110239603198 503.8519408007645L531.9613174300437 503.8519408007645ZM461.6140710445176 455.5979435920571L514.6963942322648 455.5979435920571L488.1552326383912 381.44656158668136L461.6140710445176 455.5979435920571Z " fill="black" transform="matrix(0.5181962452363731,0,0,0.5181962452363731,0,77.11848127783135)"/><path d="M657.887961895696 415.04557177824546Q657.887961895696 400.21329439431673 664.576631942127 388.3515139796489Q671.2653019885581 376.4897335649811 682.8239704675871 369.80106351855Q694.4028464089919 363.112393472119 708.5076551473874 363.112393472119L708.5076551473874 363.112393472119Q725.0979817580215 363.112393472119 737.4649487320875 371.11454857298514Q749.8319157061534 379.11670367385136 755.5102126337882 393.8075288211486L755.5102126337882 393.8075288211486L739.6473546686873 393.8075288211486Q735.423995032119 384.6333409024788 727.5026697807566 379.70272008275316Q719.5611370670182 374.7518918006516 708.5076551473874 374.7518918006516L708.5076551473874 374.7518918006516Q697.8987374000269 374.7518918006516 689.4520181268904 379.70272008275316Q681.0052988537539 384.6333409024788 676.2161302706597 393.7266989716449Q671.4067542251896 402.820057040811 671.4067542251896 415.04557177824546L671.4067542251896 415.04557177824546Q671.4067542251896 427.12963427904845 676.2161302706597 436.2229923482145Q681.0052988537539 445.31635041738065 689.4520181268904 450.2671786994822Q697.8987374000269 455.1977995192078 708.5076551473874 455.1977995192078L708.5076551473874 455.1977995192078Q719.5611370670182 455.1977995192078 727.5026697807566 450.32780108660995Q735.423995032119 445.45780265401214 739.6473546686873 436.2836147353423L739.6473546686873 436.2836147353423L755.5102126337882 436.2836147353423Q749.8319157061534 450.83298764600806 737.4649487320875 458.7745203597465Q725.0979817580215 466.695845611109 708.5076551473874 466.695845611109L708.5076551473874 466.695845611109Q694.4028464089919 466.695845611109 682.8239704675871 460.08800541418157Q671.2653019885581 453.4599577548783 664.576631942127 441.6790071897142Q657.887961895696 429.8980566245501 657.887961895696 415.04557177824546L657.887961895696 415.04557177824546ZM809.9289088121534 467.1404097833793Q798.7137671935152 467.1404097833793 789.6204091243492 462.0481292646463Q780.5270510551829 456.9558487459133 775.3741481493222 447.5593787411083Q770.2010377810855 438.1831161986792 770.2010377810855 425.8161492246133L770.2010377810855 425.8161492246133Q770.2010377810855 413.5906344871789 775.5156003859537 404.2143719447498Q780.8301629908219 394.8179019399448 789.9841434471157 389.8064512707155Q799.1583313657856 384.79500060148615 810.4947177586794 384.79500060148615L810.4947177586794 384.79500060148615Q821.8513116139491 384.79500060148615 831.0254995326188 389.8064512707155Q840.1794799889127 394.8179019399448 845.4940425937809 404.1335420952461Q850.808605198649 413.4491822505474 850.808605198649 425.8161492246133L850.808605198649 425.8161492246133Q850.808605198649 438.1831161986792 845.3525903571494 447.5593787411083Q839.8965755156498 456.9558487459133 830.5809353603485 462.0481292646463Q821.2652952050472 467.1404097833793 809.9289088121534 467.1404097833793L809.9289088121534 467.1404097833793ZM809.9289088121534 455.5009114548467Q817.041935568479 455.5009114548467 823.3062489050155 452.1464727004432Q829.5705622415522 448.8122414084156 833.4099800929779 442.1033638996086Q837.2696054067796 435.41469385317754 837.2696054067796 425.8161492246133L837.2696054067796 425.8161492246133Q837.2696054067796 416.21760459604906 833.4908099424816 409.528934549618Q829.7120144781837 402.820057040811 823.5891533782785 399.5464481359112Q817.4864997407493 396.2728392310114 810.3532655220479 396.2728392310114L810.3532655220479 396.2728392310114Q803.078579066715 396.2728392310114 797.0365478163135 399.5464481359112Q791.0147240282879 402.820057040811 787.3773808006215 409.528934549618Q783.7400375729551 416.21760459604906 783.7400375729551 425.8161492246133L783.7400375729551 425.8161492246133Q783.7400375729551 435.556146089809 787.2965509511178 442.26502359861604Q790.8530643292805 448.9536936450471 796.8344731925542 452.2273025499469Q802.7956745934521 455.5009114548467 809.9289088121534 455.5009114548467L809.9289088121534 455.5009114548467ZM863.3170244093465 425.67469698798186Q863.3170244093465 413.4491822505474 868.2678526914481 404.2143719447498Q873.2186809735497 394.9795616389522 881.8674748704454 389.8872811202192Q890.5162687673412 384.79500060148615 901.286846213709 384.79500060148615L901.286846213709 384.79500060148615Q910.6024863690103 384.79500060148615 918.6046414698765 389.0789826251822Q926.6067965707427 393.36296464887823 930.8301562073109 400.35474663094817L930.8301562073109 400.35474663094817L930.8301562073109 358.1615651900174L944.207496300173 358.1615651900174L944.207496300173 465.8269247289442L930.8301562073109 465.8269247289442L930.8301562073109 450.83298764600806Q926.8897010440056 457.9662218647095 919.1906578787782 462.55331582404443Q911.4714072511752 467.1404097833793 901.1453939770776 467.1404097833793L901.1453939770776 467.1404097833793Q890.5162687673412 467.1404097833793 881.8674748704454 461.9066770280148Q873.2186809735497 456.6527368102744 868.2678526914481 447.19564441834166Q863.3170244093465 437.7385520264089 863.3170244093465 425.67469698798186L863.3170244093465 425.67469698798186ZM930.8301562073109 425.8161492246133Q930.8301562073109 416.8036210049509 927.1928129796445 410.0947434961439Q923.5554697519781 403.40607344971284 917.3719862649451 399.84956007155006Q911.1885027779122 396.2728392310114 903.7723640859477 396.2728392310114L903.7723640859477 396.2728392310114Q896.3360179316074 396.2728392310114 890.2333642940782 399.7687302220464Q884.1307106565489 403.26462121308134 880.4933674288825 409.9532912595124Q876.8560242012161 416.6419613059435 876.8560242012161 425.67469698798186L876.8560242012161 425.67469698798186Q876.8560242012161 434.82867744427574 880.4933674288825 441.5981773402105Q884.1307106565489 448.36767723614525 890.2333642940782 451.92419061430803Q896.3360179316074 455.5009114548467 903.7723640859477 455.5009114548467L903.7723640859477 455.5009114548467Q911.1885027779122 455.5009114548467 917.3719862649451 451.92419061430803Q923.5554697519781 448.36767723614525 927.1928129796445 441.5981773402105Q930.8301562073109 434.82867744427574 930.8301562073109 425.8161492246133L930.8301562073109 425.8161492246133ZM973.4476943581361 373.1555022729535Q969.6688988938382 373.1555022729535 967.0621362473439 370.52853216408334Q964.4351661384737 367.9015620552131 964.4351661384737 364.1227665909152L964.4351661384737 364.1227665909152Q964.4351661384737 360.34397112661725 967.0621362473439 357.71700101774707Q969.6688988938382 355.11023837125276 973.4476943581361 355.11023837125276L973.4476943581361 355.11023837125276Q977.0850375858026 355.11023837125276 979.6311778451691 357.71700101774707Q982.1773181045356 360.34397112661725 982.1773181045356 364.1227665909152L982.1773181045356 364.1227665909152Q982.1773181045356 367.9015620552131 979.6311778451691 370.52853216408334Q977.0850375858026 373.1555022729535 973.4476943581361 373.1555022729535L973.4476943581361 373.1555022729535ZM966.6175720750737 386.0882781935453L979.8534599313043 386.0882781935453L979.8534599313043 465.8269247289442L966.6175720750737 465.8269247289442L966.6175720750737 386.0882781935453ZM1041.2639380917394 384.6333409024788Q1055.8133110024053 384.6333409024788 1064.8258392220678 393.4437944983819Q1073.83836744173 402.2542480942851 1073.83836744173 418.82436724254336L1073.83836744173 418.82436724254336L1073.83836744173 465.8269247289442L1060.743931822131 465.8269247289442L1060.743931822131 420.7238687058803Q1060.743931822131 408.8014659040847 1054.782730421233 402.45632271804436Q1048.8215290203352 396.1313869943799 1038.4955157462377 396.1313869943799L1038.4955157462377 396.1313869943799Q1028.0078427731328 396.1313869943799 1021.8243592860999 402.67860480417954Q1015.6408757990669 409.2258226139791 1015.6408757990669 421.73424182467653L1015.6408757990669 421.73424182467653L1015.6408757990669 465.8269247289442L1002.4049879428362 465.8269247289442L1002.4049879428362 386.0882781935453L1015.6408757990669 386.0882781935453L1015.6408757990669 397.444872048815Q1019.5813309623722 391.3422184112858 1026.350830858307 387.98777965688225Q1033.1001232918659 384.6333409024788 1041.2639380917394 384.6333409024788L1041.2639380917394 384.6333409024788ZM1128.3985158567268 384.79500060148615Q1138.7447365932003 384.79500060148615 1146.5246096079313 389.3012647113174Q1154.3044826226624 393.8075288211486 1158.0832780869603 400.63765110421116L1158.0832780869603 400.63765110421116L1158.0832780869603 386.0882781935453L1171.4808256421984 386.0882781935453L1171.4808256421984 467.56476649327374Q1171.4808256421984 478.47679617627307 1166.8129018333598 487.00434529891334Q1162.165185486897 495.5116869591776 1153.4961841276254 500.30085554227173Q1144.8473902307296 505.11023158774185 1133.3493441388284 505.11023158774185L1133.3493441388284 505.11023158774185Q1117.6481458727349 505.11023158774185 1107.16047289963 497.6940928957775Q1096.693007388901 490.2779542038131 1094.793505925564 477.46642305747685L1094.793505925564 477.46642305747685L1107.8879415451634 477.46642305747685Q1110.070347481763 484.74110951280977 1116.9206772272016 489.18675123551316Q1123.7507995102642 493.61218549584066 1133.3493441388284 493.61218549584066L1133.3493441388284 493.61218549584066Q1144.2613738218276 493.61218549584066 1151.172325954394 486.78206321277816Q1158.0832780869603 479.93173346733965 1158.0832780869603 467.56476649327374L1158.0832780869603 467.56476649327374L1158.0832780869603 450.83298764600806Q1154.1630303860309 457.82476962807806 1146.4437797584276 462.47248597454075Q1138.7447365932003 467.1404097833793 1128.3985158567268 467.1404097833793L1128.3985158567268 467.1404097833793Q1117.7895981093664 467.1404097833793 1109.1205967500946 461.9066770280148Q1100.4718028531988 456.6527368102744 1095.5209745710972 447.19564441834166Q1090.5701462889958 437.7385520264089 1090.5701462889958 425.67469698798186L1090.5701462889958 425.67469698798186Q1090.5701462889958 413.4491822505474 1095.5209745710972 404.2143719447498Q1100.4718028531988 394.9795616389522 1109.1205967500946 389.8872811202192Q1117.7895981093664 384.79500060148615 1128.3985158567268 384.79500060148615L1128.3985158567268 384.79500060148615ZM1158.0832780869603 425.8161492246133Q1158.0832780869603 416.8036210049509 1154.4459348592936 410.0947434961439Q1150.8085916316272 403.40607344971284 1144.6251081445944 399.84956007155006Q1138.4416246575613 396.2728392310114 1131.025485965597 396.2728392310114L1131.025485965597 396.2728392310114Q1123.6093472736327 396.2728392310114 1117.4864861737274 399.7687302220464Q1111.3838325361983 403.26462121308134 1107.7464893085316 409.9532912595124Q1104.1091460808652 416.6419613059435 1104.1091460808652 425.67469698798186L1104.1091460808652 425.67469698798186Q1104.1091460808652 434.82867744427574 1107.7464893085316 441.5981773402105Q1111.3838325361983 448.36767723614525 1117.4864861737274 451.92419061430803Q1123.6093472736327 455.5009114548467 1131.025485965597 455.5009114548467L1131.025485965597 455.5009114548467Q1138.4416246575613 455.5009114548467 1144.6251081445944 451.92419061430803Q1150.8085916316272 448.36767723614525 1154.4459348592936 441.5981773402105Q1158.0832780869603 434.82867744427574 1158.0832780869603 425.8161492246133L1158.0832780869603 425.8161492246133ZM1300.8085848481164 465.8269247289442L1292.6649775106189 443.27539671741226L1248.4308423697194 443.27539671741226L1240.2872350322218 465.8269247289442L1226.323878530458 465.8269247289442L1262.9802152803854 364.99168747308L1278.2570568365845 364.99168747308L1314.7921488122563 465.8269247289442L1300.8085848481164 465.8269247289442ZM1252.2298452963935 432.5048192710444L1288.8861820463208 432.5048192710444L1270.5580136713572 381.2991096104512L1252.2298452963935 432.5048192710444ZM1325.845630731887 425.67469698798186Q1325.845630731887 413.4491822505474 1330.7964590139886 404.2143719447498Q1335.7270798337145 394.9795616389522 1344.396081192986 389.8872811202192Q1353.0448750898818 384.79500060148615 1363.8154525362497 384.79500060148615L1363.8154525362497 384.79500060148615Q1373.1310926915507 384.79500060148615 1381.133247792417 389.0789826251822Q1389.1354028932833 393.36296464887823 1393.3587625298514 400.35474663094817L1393.3587625298514 400.35474663094817L1393.3587625298514 358.1615651900174L1406.7361026227138 358.1615651900174L1406.7361026227138 465.8269247289442L1393.3587625298514 465.8269247289442L1393.3587625298514 450.83298764600806Q1389.4183073665463 457.9662218647095 1381.719264201319 462.55331582404443Q1374.000013573716 467.1404097833793 1363.674000299618 467.1404097833793L1363.674000299618 467.1404097833793Q1353.0448750898818 467.1404097833793 1344.396081192986 461.9066770280148Q1335.7270798337145 456.6527368102744 1330.7964590139886 447.19564441834166Q1325.845630731887 437.7385520264089 1325.845630731887 425.67469698798186L1325.845630731887 425.67469698798186ZM1393.3587625298514 425.8161492246133Q1393.3587625298514 416.8036210049509 1389.721419302185 410.0947434961439Q1386.0840760745186 403.40607344971284 1379.9005925874858 399.84956007155006Q1373.7171091004525 396.2728392310114 1366.2807629461124 396.2728392310114L1366.2807629461124 396.2728392310114Q1358.864624254148 396.2728392310114 1352.7619706166188 399.7687302220464Q1346.6391095167137 403.26462121308134 1343.0017662890473 409.9532912595124Q1339.3644230613806 416.6419613059435 1339.3644230613806 425.67469698798186L1339.3644230613806 425.67469698798186Q1339.3644230613806 434.82867744427574 1343.0017662890473 441.5981773402105Q1346.6391095167137 448.36767723614525 1352.7619706166188 451.92419061430803Q1358.864624254148 455.5009114548467 1366.2807629461124 455.5009114548467L1366.2807629461124 455.5009114548467Q1373.7171091004525 455.5009114548467 1379.9005925874858 451.92419061430803Q1386.0840760745186 448.36767723614525 1389.721419302185 441.5981773402105Q1393.3587625298514 434.82867744427574 1393.3587625298514 425.8161492246133L1393.3587625298514 425.8161492246133ZM1424.1953501155126 425.67469698798186Q1424.1953501155126 413.4491822505474 1429.1461783976142 404.2143719447498Q1434.0970066797158 394.9795616389522 1442.7458005766116 389.8872811202192Q1451.3945944735074 384.79500060148615 1462.1651719198753 384.79500060148615L1462.1651719198753 384.79500060148615Q1471.4808120751766 384.79500060148615 1479.4829671760426 389.0789826251822Q1487.485122276909 393.36296464887823 1491.708481913477 400.35474663094817L1491.708481913477 400.35474663094817L1491.708481913477 358.1615651900174L1505.0858220063392 358.1615651900174L1505.0858220063392 465.8269247289442L1491.708481913477 465.8269247289442L1491.708481913477 450.83298764600806Q1487.7680267501719 457.9662218647095 1480.0689835849444 462.55331582404443Q1472.349732957341 467.1404097833793 1462.0237196832436 467.1404097833793L1462.0237196832436 467.1404097833793Q1451.3945944735074 467.1404097833793 1442.7458005766116 461.9066770280148Q1434.0970066797158 456.6527368102744 1429.1461783976142 447.19564441834166Q1424.1953501155126 437.7385520264089 1424.1953501155126 425.67469698798186L1424.1953501155126 425.67469698798186ZM1491.708481913477 425.8161492246133Q1491.708481913477 416.8036210049509 1488.0711386858106 410.0947434961439Q1484.4337954581442 403.40607344971284 1478.2503119711114 399.84956007155006Q1472.066828484078 396.2728392310114 1464.650689792114 396.2728392310114L1464.650689792114 396.2728392310114Q1457.2143436377737 396.2728392310114 1451.1116900002444 399.7687302220464Q1445.009036362715 403.26462121308134 1441.3716931350486 409.9532912595124Q1437.7343499073822 416.6419613059435 1437.7343499073822 425.67469698798186L1437.7343499073822 425.67469698798186Q1437.7343499073822 434.82867744427574 1441.3716931350486 441.5981773402105Q1445.009036362715 448.36767723614525 1451.1116900002444 451.92419061430803Q1457.2143436377737 455.5009114548467 1464.650689792114 455.5009114548467L1464.650689792114 455.5009114548467Q1472.066828484078 455.5009114548467 1478.2503119711114 451.92419061430803Q1484.4337954581442 448.36767723614525 1488.0711386858106 441.5981773402105Q1491.708481913477 434.82867744427574 1491.708481913477 425.8161492246133L1491.708481913477 425.8161492246133ZM1534.3260200643022 373.1555022729535Q1530.5472246000045 373.1555022729535 1527.9404619535103 370.52853216408334Q1525.3134918446399 367.9015620552131 1525.3134918446399 364.1227665909152L1525.3134918446399 364.1227665909152Q1525.3134918446399 360.34397112661725 1527.9404619535103 357.71700101774707Q1530.5472246000045 355.11023837125276 1534.3260200643022 355.11023837125276L1534.3260200643022 355.11023837125276Q1537.9633632919688 355.11023837125276 1540.5095035513355 357.71700101774707Q1543.0556438107017 360.34397112661725 1543.0556438107017 364.1227665909152L1543.0556438107017 364.1227665909152Q1543.0556438107017 367.9015620552131 1540.5095035513355 370.52853216408334Q1537.9633632919688 373.1555022729535 1534.3260200643022 373.1555022729535L1534.3260200643022 373.1555022729535ZM1527.4958977812398 386.0882781935453L1540.7317856374702 386.0882781935453L1540.7317856374702 465.8269247289442L1527.4958977812398 465.8269247289442L1527.4958977812398 386.0882781935453ZM1558.3324853669008 425.8161492246133Q1558.3324853669008 413.4491822505474 1563.2833136490024 404.2143719447498Q1568.2341419311042 394.9795616389522 1577.044595527007 389.8872811202192Q1585.8348416605345 384.79500060148615 1597.1914355158042 384.79500060148615L1597.1914355158042 384.79500060148615Q1611.8822606631013 384.79500060148615 1621.4201829045378 391.90802735781165Q1630.9378976835983 399.0412615765131 1633.989224502363 411.71134048621786L1633.989224502363 411.71134048621786L1619.742963527336 411.71134048621786Q1617.7020098273676 404.436654030885 1611.8014308135976 400.21329439431673Q1605.9210592622035 395.9899347577484 1597.1914355158042 395.9899347577484L1597.1914355158042 395.9899347577484Q1585.8348416605345 395.9899347577484 1578.8632671408404 403.76980777247945Q1571.8714851587702 411.5496807872105 1571.8714851587702 425.8161492246133L1571.8714851587702 425.8161492246133Q1571.8714851587702 440.2240698986476 1578.8632671408404 448.0847727628823Q1585.8348416605345 455.9252681647411 1597.1914355158042 455.9252681647411L1597.1914355158042 455.9252681647411Q1605.9210592622035 455.9252681647411 1611.7408084264698 451.8635682271803Q1617.5605575907362 447.78166082724346 1619.742963527336 440.2240698986476L1619.742963527336 440.2240698986476L1633.989224502363 440.2240698986476Q1630.796445446967 452.4495846360821 1621.1979008184026 459.78489347854276Q1611.5993561898385 467.1404097833793 1597.1914355158042 467.1404097833793L1597.1914355158042 467.1404097833793Q1585.8348416605345 467.1404097833793 1577.044595527007 462.0481292646463Q1568.2341419311042 456.9558487459133 1563.2833136490024 447.640208590612Q1558.3324853669008 438.3245684353107 1558.3324853669008 425.8161492246133L1558.3324853669008 425.8161492246133ZM1688.5493729173595 397.0003078765447L1667.7558941325333 397.0003078765447L1667.7558941325333 444.00286536294556Q1667.7558941325333 449.82261452721184 1670.2212045423958 452.2273025499469Q1672.7067224146347 454.63199057268196 1678.8093760521638 454.63199057268196L1678.8093760521638 454.63199057268196L1688.5493729173595 454.63199057268196L1688.5493729173595 465.8269247289442L1676.626970115564 465.8269247289442Q1665.5734881959334 465.8269247289442 1660.0366435049298 460.7346442102112Q1654.5200062763024 455.6423636914782 1654.5200062763024 444.00286536294556L1654.5200062763024 444.00286536294556L1654.5200062763024 397.0003078765447L1644.173785539829 397.0003078765447L1644.173785539829 386.0882781935453L1654.5200062763024 386.0882781935453L1654.5200062763024 366.0222680542521L1667.7558941325333 366.0222680542521L1667.7558941325333 386.0882781935453L1688.5493729173595 386.0882781935453L1688.5493729173595 397.0003078765447Z " fill="#38b0c5" transform="matrix(0.5181962452363731,0,0,0.5181962452363731,0,77.11848127783135)"/></g></svg>